# xmcd
#
# Track frame offsets:
#	150
#	18410
#	35400
#	53644
#	68957
#	89845
#	115779
#	129849
#	147035
#	165834
#	184066
#	199116
#	213257
#	230466
#
# Disc length: 3304
#
# Revision: 1
# Processed by: cddbd v1.5.1PL0 Copyright (c) Steve Scherf et al.
# Submitted via: dBpowerAMP V4.0
# Normalized: r0:TDELIM( - )
#
DISCID=b80ce60e
DTITLE=Totally Country - 3
DYEAR=1900
DGENRE=
TTITLE0=Tim Mcgraw - Unbroken
TTITLE1=Faith Hill - Cry
TTITLE2=Montgomery Gentry - Speed
TTITLE3=Randy Travis - Three Wooden Crosses
TTITLE4=Matrina Mcbride - Blessed
TTITLE5=Dixie Chicks - Travlin Soldier
TTITLE6=Rascal Falatts - Love You Out Loud
TTITLE7=Jo Dee Messina - Was That My Life
TTITLE8=Lonestar - Not A Day Goes By
TTITLE9=Kellie Coffey - When You Lie Next To Me
TTITLE10=Phil Vassar - American Child
TTITLE11=Trick Pony - On A Mission
TTITLE12=Dusty Drake - One Last Time
TTITLE13=Travis Tritt - Strong Enough
EXTD=
EXTT0=
EXTT1=
EXTT2=
EXTT3=
EXTT4=
EXTT5=
EXTT6=
EXTT7=
EXTT8=
EXTT9=
EXTT10=
EXTT11=
EXTT12=
EXTT13=
PLAYORDER=
